# xmcd CD database file
#
# Track frame offsets:
#	150
#	29962
#	54488
#	77539
#	97064
#	118586
#	142970
#	165330
#	198355
#	224667
#	248771
#	275808
#	288847
#	304993
#
# Disc length: 4300 seconds
#
# Revision: 0
# Processed by: cddbd v1.5.2PL0 Copyright (c) Steve Scherf et al.
# Submitted via: CDex 1.51
#
DISCID=d210ca0e
DTITLE=Jazz Couriers - Some Of My Best Friends
DYEAR=1957
DGENRE=Jazz
TTITLE0=Through The Night Roared The Overland Express
TTITLE1=Royal Ascot
TTITLE2=On A Misty Niight
TTITLE3=Cheek To Cheek
TTITLE4=Oh, My
TTITLE5=Plebus
TTITLE6=Reunion
TTITLE7=A Foggy Day
TTITLE8=What Is This Thing Called Love
TTITLE9=Some Of My Best Friends
TTITLE10=The Sperent
TTITLE11=Time Was
TTITLE12=Speak Low
TTITLE13=Cheek To Cheek
EXTD=YEAR: 1957
EXTT0=
EXTT1=
EXTT2=
EXTT3=
EXTT4=
EXTT5=
EXTT6=
EXTT7=
EXTT8=
EXTT9=
EXTT10=
EXTT11=
EXTT12=
EXTT13=
PLAYORDER=
